{
	"nodes":[{
		"name":"Extrude.1",
		"mesh":0
	},
	{
		"name":"Extrude",
		"mesh":1
	}],
	"asset":{
		"version":"2.0",
		"generator":"Created using the official Cinema 4D glTF Exporter 1.000x284978"
	},
	"scenes":[{
		"nodes":[0,
		1]
	}],
	"meshes":[{
		"name":"Extrude.1",
		"primitives":[{
			"attributes":{
				"POSITION":1,
				"NORMAL":2,
				"TEXCOORD_0":3
			},
			"indices":0
		}]
	},
	{
		"name":"Extrude",
		"primitives":[{
			"attributes":{
				"POSITION":5,
				"NORMAL":6,
				"TEXCOORD_0":7
			},
			"indices":4
		}]
	}],
	"accessors":[{
		"bufferView":0,
		"count":96,
		"type":"SCALAR",
		"componentType":5123,
		"byteOffset":0,
		"min":[0],
		"max":[47]
	},
	{
		"bufferView":1,
		"count":48,
		"type":"VEC3",
		"componentType":5126,
		"byteOffset":0,
		"min":[3.3951332569122316,
		1.1345332860946656,
		0.0],
		"max":[6.502399921417236,
		6.1468000411987309,
		1.0]
	},
	{
		"bufferView":1,
		"count":48,
		"type":"VEC3",
		"componentType":5126,
		"byteOffset":12,
		"min":[-1.0,
		-1.0,
		-1.0],
		"max":[0.9999985694885254,
		1.0,
		1.0]
	},
	{
		"bufferView":1,
		"count":48,
		"type":"VEC2",
		"componentType":5126,
		"byteOffset":24,
		"min":[0.0,
		0.0],
		"max":[1.0,
		1.0]
	},
	{
		"bufferView":2,
		"count":120,
		"type":"SCALAR",
		"componentType":5123,
		"byteOffset":0,
		"min":[0],
		"max":[59]
	},
	{
		"bufferView":3,
		"count":60,
		"type":"VEC3",
		"componentType":5126,
		"byteOffset":0,
		"min":[1.1345332860946656,
		1.1345332860946656,
		0.0],
		"max":[6.485466480255127,
		6.485466480255127,
		1.0]
	},
	{
		"bufferView":3,
		"count":60,
		"type":"VEC3",
		"componentType":5126,
		"byteOffset":12,
		"min":[-1.0,
		-0.999997079372406,
		-1.0],
		"max":[0.7081148624420166,
		0.9999987483024597,
		1.0]
	},
	{
		"bufferView":3,
		"count":60,
		"type":"VEC2",
		"componentType":5126,
		"byteOffset":24,
		"min":[0.0,
		0.0],
		"max":[1.0,
		1.0]
	}],
	"bufferViews":[{
		"buffer":0,
		"byteOffset":0,
		"byteLength":192,
		"target":34963
	},
	{
		"buffer":0,
		"byteOffset":192,
		"byteLength":1536,
		"target":34962,
		"byteStride":32
	},
	{
		"buffer":1,
		"byteOffset":0,
		"byteLength":240,
		"target":34963
	},
	{
		"buffer":1,
		"byteOffset":240,
		"byteLength":1920,
		"target":34962,
		"byteStride":32
	}],
	"buffers":[{
		"uri":"data:application/octet-stream;base64,",
		"byteLength":1728
	},
	{
		"uri":"data:application/octet-stream;base64,",
		"byteLength":2160
	}]
}