{
	"nodes":[{
		"name":"Extrude",
		"mesh":0
	}],
	"asset":{
		"version":"2.0",
		"generator":"Created using the official Cinema 4D glTF Exporter 1.000x284978"
	},
	"scenes":[{
		"nodes":[0]
	}],
	"meshes":[{
		"name":"Extrude",
		"primitives":[{
			"attributes":{
				"POSITION":1,
				"NORMAL":2,
				"TEXCOORD_0":3
			},
			"indices":0
		}]
	}],
	"accessors":[{
		"bufferView":0,
		"count":120,
		"type":"SCALAR",
		"componentType":5123,
		"byteOffset":0,
		"min":[0],
		"max":[59]
	},
	{
		"bufferView":1,
		"count":60,
		"type":"VEC3",
		"componentType":5126,
		"byteOffset":0,
		"min":[1.1345332860946656,
		1.1345332860946656,
		0.0],
		"max":[6.485466480255127,
		6.485466480255127,
		1.0]
	},
	{
		"bufferView":1,
		"count":60,
		"type":"VEC3",
		"componentType":5126,
		"byteOffset":12,
		"min":[-1.0,
		-0.999997079372406,
		-1.0],
		"max":[0.7081148624420166,
		0.9999987483024597,
		1.0]
	},
	{
		"bufferView":1,
		"count":60,
		"type":"VEC2",
		"componentType":5126,
		"byteOffset":24,
		"min":[0.0,
		0.0],
		"max":[1.0,
		1.0]
	}],
	"bufferViews":[{
		"buffer":0,
		"byteOffset":0,
		"byteLength":240,
		"target":34963
	},
	{
		"buffer":0,
		"byteOffset":240,
		"byteLength":1920,
		"target":34962,
		"byteStride":32
	}],
	"buffers":[{
		"uri":"data:application/octet-stream;base64,",
		"byteLength":2160
	}]
}